Coordinates
version=1
nRows=16
nColumns=40
inDegrees=yes

Units are S.I. units (second, meters, Newtons, ...)
Angles are in degrees.

endheader
time	pelvis_tilt	pelvis_list	pelvis_rotation	pelvis_tx	pelvis_ty	pelvis_tz	hip_flexion_r	hip_adduction_r	hip_rotation_r	knee_angle_r	knee_angle_r_beta	ankle_angle_r	subtalar_angle_r	mtp_angle_r	hip_flexion_l	hip_adduction_l	hip_rotation_l	knee_angle_l	knee_angle_l_beta	ankle_angle_l	subtalar_angle_l	mtp_angle_l	lumbar_extension	lumbar_bending	lumbar_rotation	arm_flex_r	arm_add_r	arm_rot_r	elbow_flex_r	pro_sup_r	wrist_flex_r	wrist_dev_r	arm_flex_l	arm_add_l	arm_rot_l	elbow_flex_l	pro_sup_l	wrist_flex_l	wrist_dev_l
     14.91000000	     -2.04463277	     -5.03411045	      8.99808565	      1.11104941	      0.93532283	      0.48206942	     10.11803365	      2.96713558	    -21.22342384	     15.91938584	     15.91938584	      9.19819068	     -2.41017735	     -2.86250006	     29.74383597	    -12.19527811	      1.96274117	     63.58634597	     63.58634597	      9.62124062	    -18.48133090	     12.61346328	     -9.26140580	      6.14232251	      4.31176504	     16.88177799	    -17.14321572	     -7.46270611	     33.23056519	     45.31597902	      0.00000000	      0.00000000	      7.69574467	     -7.22088712	      0.86677217	     41.10145181	     45.05847034	      0.00000000	      0.00000000
     14.92100000	     -2.18939952	     -5.02658688	      9.13086040	      1.10923301	      0.93553893	      0.48249508	      9.36608278	      3.21238291	    -21.19725825	     15.13888427	     15.13888427	      9.40039041	     -2.22283650	     -2.88507992	     31.13413915	    -11.97255612	      1.65259731	     61.45791497	     61.45791497	      9.66527009	    -18.52415720	     12.65319469	     -9.25182913	      6.06184602	      4.14459389	     19.47503262	    -17.28526569	     -7.42279423	     34.75663556	     45.28324590	      0.00000000	      0.00000000	      6.13617659	     -7.30881329	      1.12355627	     39.51158197	     45.02347175	      0.00000000	      0.00000000
     14.93200000	     -2.29994784	     -5.01119059	      9.26578977	      1.10749250	      0.93572834	      0.48285268	      8.56231301	      3.44805644	    -21.23488521	     14.32577218	     14.32577218	      9.56097889	     -1.94389735	     -2.97063678	     32.24611672	    -11.70727394	      1.33120458	     58.99589940	     58.99589940	      9.58586775	    -18.53280273	     12.74243981	     -9.27943101	      5.98895216	      4.03185579	     21.99992889	    -17.44626438	     -7.22810222	     36.38023469	     45.23611426	      0.00000000	      0.00000000	      4.78031300	     -7.34525804	      1.45376260	     37.56070235	     44.98104434	      0.00000000	      0.00000000
     14.94300000	     -2.42947383	     -5.03336960	      9.37456278	      1.10580789	      0.93572925	      0.48315855	      7.77856882	      3.70671468	    -21.34796407	     13.48527826	     13.48527826	      9.55666563	     -1.55774140	     -3.62339614	     33.19446639	    -11.47155325	      0.97698452	     56.26576486	     56.26576486	      9.25533696	    -18.50522654	     12.48084883	     -9.25721530	      5.99328393	      4.47819618	     23.86893141	    -18.24812119	     -5.82863778	     38.66023471	     45.12688482	      0.00000000	      0.00000000	      4.47737109	     -7.05114731	      2.24570877	     33.54023981	     44.94969342	      0.00000000	      0.00000000
     14.95400000	     -2.52884195	     -5.01995855	      9.46903034	      1.10417724	      0.93565047	      0.48338820	      6.96855799	      3.94536158	    -21.31671603	     12.66817393	     12.66817393	      9.76377674	     -1.27298241	     -3.65574135	     33.92346020	    -11.12699357	      0.69217321	     53.31076597	     53.31076597	      9.05781595	    -18.43691693	     12.90246065	     -9.31014496	      5.93261840	      4.47258823	     26.24390995	    -18.40772050	     -5.74976126	     40.32188617	     45.08384068	      0.00000000	      0.00000000	      3.03538163	     -7.09660458	      2.47828267	     32.25903347	     44.91108453	      0.00000000	      0.00000000
     14.96500000	     -2.63586246	     -5.10014955	      9.56714367	      1.10264654	      0.93532679	      0.48352098	      6.14345782	      4.27484653	    -21.40962118	     11.78795559	     11.78795559	      9.94501216	     -0.79195342	     -3.81566331	     34.57741999	    -10.84065761	      0.50080701	     50.22200453	     50.22200453	      8.79110247	    -18.23305279	     13.22918300	     -9.32804353	      6.00397346	      4.42556650	     28.55394629	    -18.57080183	     -5.49221889	     42.23097003	     45.02458305	      0.00000000	      0.00000000	      1.70767687	     -7.08653396	      2.80622554	     30.64368817	     44.86330895	      0.00000000	      0.00000000
     14.97600000	     -2.77025076	     -5.17608715	      9.61088163	      1.10117838	      0.93475416	      0.48355764	      5.34630027	      4.56413172	    -21.63866102	     10.91088444	     10.91088444	     10.00581843	     -0.05713303	     -4.55908020	     35.08048095	    -10.54439148	      0.29236015	     46.89843981	     46.89843981	      8.21334732	    -17.92898338	     12.70971006	     -9.31882631	      6.07237936	      4.91834449	     30.02809826	    -19.43332031	     -4.17283544	     45.44796214	     44.89722011	      0.00000000	      0.00000000	      1.01276996	     -6.94729352	      3.61419858	     28.11538064	     44.79779132	      0.00000000	      0.00000000
     14.98700000	     -2.92676346	     -5.23633493	      9.65415370	      1.09978693	      0.93402853	      0.48348166	      4.59532752	      4.84958284	    -21.59564937	     10.09679072	     10.09679072	     10.26708577	      0.30788177	     -4.62283640	     35.50354991	    -10.16531789	      0.19894954	     43.48376143	     43.48376143	      7.92564587	    -17.41563724	     13.07768298	     -9.26884907	      6.09384178	      4.93509822	     32.20888060	    -19.48212718	     -4.20480007	     47.13078037	     44.85879649	      0.00000000	      0.00000000	     -0.50030124	     -6.99876557	      3.78662880	     27.26774140	     44.75672961	      0.00000000	      0.00000000
     14.99800000	     -3.06888072	     -5.40913111	      9.70368686	      1.09851219	      0.93304354	      0.48328427	      3.77619036	      5.25989880	    -21.74158395	      9.16487359	      9.16487359	     10.51075410	      0.99332261	     -4.82637706	     35.87563125	     -9.89108208	      0.22099293	     40.06517056	     40.06517056	      7.62895513	    -16.56930276	     13.04939345	     -9.19571814	      6.28162555	      4.81169652	     34.36769498	    -19.43654028	     -4.08859459	     49.40048850	     44.79547310	      0.00000000	      0.00000000	     -2.06081716	     -6.99390228	      4.02358341	     26.40661945	     44.70630586	      0.00000000	      0.00000000
     15.00900000	     -3.22266080	     -5.60837832	      9.71867473	      1.09735602	      0.93184009	      0.48300328	      2.98837391	      5.66766630	    -21.90935905	      8.28853266	      8.28853266	     10.74222896	      1.80836359	     -5.13610727	     36.16157555	     -9.67026751	      0.23717590	     36.61581425	     36.61581425	      7.32496587	    -15.37950647	     12.68645287	     -9.12193814	      6.48818959	      4.78480554	     36.26152689	    -19.48274032	     -3.86216990	     52.02727134	     44.71691420	      0.00000000	      0.00000000	     -3.61809228	     -7.00919135	      4.27026132	     25.74841944	     44.65378843	      0.00000000	      0.00000000
     15.02000000	     -3.40068543	     -5.76898254	      9.72248430	      1.09632521	      0.93047241	      0.48263804	      2.24356601	      6.01470277	    -22.11460636	      7.47936407	      7.47936407	     10.92103090	      2.62347146	     -5.80793763	     36.27304641	     -9.44312882	      0.12396048	     32.99036268	     32.99036268	      6.34547403	    -14.02897826	     10.68384295	     -9.05355148	      6.63005805	      5.31375378	     37.15337438	    -20.31514742	     -3.18618290	     56.50082576	     44.61333570	      0.00000000	      0.00000000	     -5.08952888	     -7.12514709	      5.18090454	     25.59674053	     44.53663191	      0.00000000	      0.00000000
     15.03100000	     -3.59722995	     -5.88681895	      9.69264209	      1.09537001	      0.92905090	      0.48211816	      1.56256205	      6.29635307	    -22.06658285	      6.79972135	      6.79972135	     11.28526927	      3.08005584	     -5.94227422	     36.39489779	     -9.18031939	      0.00372075	     29.67728993	     29.67728993	      6.33646907	    -12.22047412	     10.96968527	     -8.88561964	      6.76592878	      5.29992886	     39.16324957	    -20.07182982	     -3.28672630	     58.24889689	     44.57571441	      0.00000000	      0.00000000	     -6.66139132	     -7.13303416	      5.33285056	     25.01375174	     44.49270338	      0.00000000	      0.00000000
     15.04200000	     -3.69075594	     -6.14493390	      9.69363389	      1.09468371	      0.92750300	      0.48158714	      0.71682837	      6.76381911	    -22.16707094	      5.99677521	      5.99677521	     11.56540060	      3.86250908	     -6.11514544	     36.48174505	     -9.10525278	     -0.10153783	     26.74923844	     26.74923844	      6.46891451	    -10.17815182	     10.98176709	     -8.80316180	      7.00204608	      5.03751169	     41.03389972	    -19.66082443	     -3.26779807	     60.97982142	     44.50552239	      0.00000000	      0.00000000	     -8.40438146	     -7.09262541	      5.52371522	     24.72804070	     44.44116393	      0.00000000	      0.00000000
     15.05300000	     -3.85636007	     -6.30657763	      9.65150467	      1.09407565	      0.92589965	      0.48088079	      0.03948750	      7.05718856	    -22.15930371	      5.43406896	      5.43406896	     11.91599996	      4.42619129	     -6.28063778	     36.51089126	     -8.93224461	     -0.33383284	     24.00453697	     24.00453697	      6.57903547	     -8.29155055	     11.13296287	     -8.65726713	      7.15212481	      5.01898616	     42.65113228	    -19.45174321	     -3.25651672	     63.48981700	     44.44099397	      0.00000000	      0.00000000	    -10.02164461	     -7.06187626	      5.65857961	     24.57745736	     44.39878711	      0.00000000	      0.00000000
     15.06400000	     -4.07333336	     -6.53351686	      9.59426537	      1.09351076	      0.92415120	      0.48008721	     -0.48279274	      7.37011321	    -22.10332673	      5.06054025	      5.06054025	     12.30793788	      4.76689406	     -6.42745809	     36.62664028	     -8.80208242	     -0.50588503	     21.69555945	     21.69555945	      6.68524079	     -6.79114604	     11.38463687	     -8.39413459	      7.35726361	      5.14449843	     44.30486793	    -19.32080564	     -3.31006032	     65.41175949	     44.39274033	      0.00000000	      0.00000000	    -11.42003042	     -6.95000618	      5.73906918	     24.34346061	     44.36511379	      0.00000000	      0.00000000
     15.07500000	     -4.12262715	     -6.67494944	      9.52225058	      1.09336591	      0.92262100	      0.47918195	     -1.28728176	      7.62063179	    -22.20788020	      4.58240131	      4.58240131	     12.75299257	      5.60216544	     -6.40568451	     36.60337056	     -8.73441494	     -1.12840550	     20.03810876	     20.03810876	      7.02381756	     -5.09163717	     11.43244322	     -8.43249080	      7.49197392	      5.34665354	     44.81739873	    -19.49922143	     -3.30562842	     70.53143339	     44.27721756	      0.00000000	      0.00000000	    -13.24240886	     -7.11790169	      6.08192280	     25.22551787	     44.30746852	      0.00000000	      0.00000000
